<mxfile host="app.diagrams.net" agent="Mozilla/5.0 (Windows NT 10.0; Win64; x64) AppleWebKit/537.36 (KHTML, like Gecko) Chrome/132.0.0.0 Safari/537.36" version="26.0.15">
  <diagram name="第 1 页" id="JX8bmrdWdLP1N0eSCSQa">
    <mxGraphModel dx="954" dy="652" grid="1" gridSize="10" guides="1" tooltips="1" connect="1" arrows="1" fold="1" page="1" pageScale="1" pageWidth="827" pageHeight="1169" math="0" shadow="0">
      <root>
        <mxCell id="0" />
        <mxCell id="1" parent="0" />
        <mxCell id="uVbZ8XAu38w_o3__-Ur9-7" style="edgeStyle=orthogonalEdgeStyle;rounded=0;orthogonalLoop=1;jettySize=auto;html=1;exitX=0.5;exitY=1;exitDx=0;exitDy=0;entryX=0.5;entryY=0;entryDx=0;entryDy=0;" edge="1" parent="1" source="uVbZ8XAu38w_o3__-Ur9-1" target="uVbZ8XAu38w_o3__-Ur9-5">
          <mxGeometry relative="1" as="geometry" />
        </mxCell>
        <mxCell id="uVbZ8XAu38w_o3__-Ur9-8" style="edgeStyle=orthogonalEdgeStyle;rounded=0;orthogonalLoop=1;jettySize=auto;html=1;entryX=0.5;entryY=0;entryDx=0;entryDy=0;" edge="1" parent="1" source="uVbZ8XAu38w_o3__-Ur9-1" target="uVbZ8XAu38w_o3__-Ur9-4">
          <mxGeometry relative="1" as="geometry" />
        </mxCell>
        <mxCell id="uVbZ8XAu38w_o3__-Ur9-1" value="&lt;font face=&quot;Times New Roman&quot; style=&quot;font-size: 15px;&quot;&gt;智能摄像头捕捉&lt;/font&gt;" style="rounded=1;whiteSpace=wrap;html=1;fillColor=#008a00;strokeColor=#005700;fontColor=#ffffff;" vertex="1" parent="1">
          <mxGeometry x="350" y="90" width="120" height="60" as="geometry" />
        </mxCell>
        <mxCell id="uVbZ8XAu38w_o3__-Ur9-11" style="edgeStyle=orthogonalEdgeStyle;rounded=0;orthogonalLoop=1;jettySize=auto;html=1;exitX=0.5;exitY=1;exitDx=0;exitDy=0;entryX=0.5;entryY=0;entryDx=0;entryDy=0;" edge="1" parent="1" source="uVbZ8XAu38w_o3__-Ur9-4" target="uVbZ8XAu38w_o3__-Ur9-9">
          <mxGeometry relative="1" as="geometry" />
        </mxCell>
        <mxCell id="uVbZ8XAu38w_o3__-Ur9-4" value="&lt;font face=&quot;Times New Roman&quot; style=&quot;font-size: 15px;&quot;&gt;红外数据采集&lt;/font&gt;" style="rounded=1;whiteSpace=wrap;html=1;fillColor=#008a00;strokeColor=#005700;fontColor=#ffffff;" vertex="1" parent="1">
          <mxGeometry x="470" y="190" width="120" height="60" as="geometry" />
        </mxCell>
        <mxCell id="uVbZ8XAu38w_o3__-Ur9-10" style="edgeStyle=orthogonalEdgeStyle;rounded=0;orthogonalLoop=1;jettySize=auto;html=1;entryX=0.5;entryY=0;entryDx=0;entryDy=0;" edge="1" parent="1" source="uVbZ8XAu38w_o3__-Ur9-5" target="uVbZ8XAu38w_o3__-Ur9-9">
          <mxGeometry relative="1" as="geometry" />
        </mxCell>
        <mxCell id="uVbZ8XAu38w_o3__-Ur9-5" value="&lt;font face=&quot;Times New Roman&quot; style=&quot;font-size: 15px;&quot;&gt;可见光采集&lt;/font&gt;" style="rounded=1;whiteSpace=wrap;html=1;fillColor=#008a00;strokeColor=#005700;fontColor=#ffffff;" vertex="1" parent="1">
          <mxGeometry x="230" y="190" width="120" height="60" as="geometry" />
        </mxCell>
        <mxCell id="uVbZ8XAu38w_o3__-Ur9-16" style="edgeStyle=orthogonalEdgeStyle;rounded=0;orthogonalLoop=1;jettySize=auto;html=1;exitX=0.5;exitY=1;exitDx=0;exitDy=0;entryX=0.5;entryY=0;entryDx=0;entryDy=0;" edge="1" parent="1" source="uVbZ8XAu38w_o3__-Ur9-9" target="uVbZ8XAu38w_o3__-Ur9-12">
          <mxGeometry relative="1" as="geometry" />
        </mxCell>
        <mxCell id="uVbZ8XAu38w_o3__-Ur9-9" value="&lt;font face=&quot;Times New Roman&quot; style=&quot;font-size: 15px;&quot;&gt;视频流数据前置处理&lt;/font&gt;" style="rounded=1;whiteSpace=wrap;html=1;fillColor=#008a00;strokeColor=#005700;fontColor=#ffffff;" vertex="1" parent="1">
          <mxGeometry x="350" y="290" width="120" height="60" as="geometry" />
        </mxCell>
        <mxCell id="uVbZ8XAu38w_o3__-Ur9-17" style="edgeStyle=orthogonalEdgeStyle;rounded=0;orthogonalLoop=1;jettySize=auto;html=1;exitX=0.5;exitY=1;exitDx=0;exitDy=0;entryX=0.5;entryY=0;entryDx=0;entryDy=0;" edge="1" parent="1" source="uVbZ8XAu38w_o3__-Ur9-12" target="uVbZ8XAu38w_o3__-Ur9-13">
          <mxGeometry relative="1" as="geometry" />
        </mxCell>
        <mxCell id="uVbZ8XAu38w_o3__-Ur9-21" style="edgeStyle=orthogonalEdgeStyle;rounded=0;orthogonalLoop=1;jettySize=auto;html=1;exitX=0.5;exitY=1;exitDx=0;exitDy=0;" edge="1" parent="1" source="uVbZ8XAu38w_o3__-Ur9-12" target="uVbZ8XAu38w_o3__-Ur9-15">
          <mxGeometry relative="1" as="geometry" />
        </mxCell>
        <mxCell id="uVbZ8XAu38w_o3__-Ur9-12" value="&lt;font face=&quot;Times New Roman&quot; style=&quot;font-size: 15px;&quot;&gt;人工智能算法分析&lt;/font&gt;&lt;span style=&quot;color: rgba(0, 0, 0, 0); font-family: monospace; font-size: 0px; text-align: start; text-wrap-mode: nowrap;&quot;&gt;%3CmxGraphModel%3E%3Croot%3E%3CmxCell%20id%3D%220%22%2F%3E%3CmxCell%20id%3D%221%22%20parent%3D%220%22%2F%3E%3CmxCell%20id%3D%222%22%20value%3D%22%26lt%3Bfont%20face%3D%26quot%3BTimes%20New%20Roman%26quot%3B%20style%3D%26quot%3Bfont-size%3A%2015px%3B%26quot%3B%26gt%3B%E8%A7%86%E9%A2%91%E6%B5%81%E6%95%B0%E6%8D%AE%E5%89%8D%E7%BD%AE%E5%A4%84%E7%90%86%26lt%3B%2Ffont%26gt%3B%22%20style%3D%22rounded%3D1%3BwhiteSpace%3Dwrap%3Bhtml%3D1%3BfillColor%3D%23008a00%3BstrokeColor%3D%23005700%3BfontColor%3D%23ffffff%3B%22%20vertex%3D%221%22%20parent%3D%221%22%3E%3CmxGeometry%20x%3D%22350%22%20y%3D%22290%22%20width%3D%22120%22%20height%3D%2260%22%20as%3D%22geometry%22%2F%3E%3C%2FmxCell%3E%3C%2Froot%3E%3C%2FmxGraphModel%3E&lt;/span&gt;" style="rounded=1;whiteSpace=wrap;html=1;fillColor=#008a00;strokeColor=#005700;fontColor=#ffffff;" vertex="1" parent="1">
          <mxGeometry x="350" y="400" width="120" height="60" as="geometry" />
        </mxCell>
        <mxCell id="uVbZ8XAu38w_o3__-Ur9-23" style="edgeStyle=orthogonalEdgeStyle;rounded=0;orthogonalLoop=1;jettySize=auto;html=1;exitX=0.5;exitY=1;exitDx=0;exitDy=0;entryX=0.5;entryY=0;entryDx=0;entryDy=0;" edge="1" parent="1" source="uVbZ8XAu38w_o3__-Ur9-13" target="uVbZ8XAu38w_o3__-Ur9-20">
          <mxGeometry relative="1" as="geometry" />
        </mxCell>
        <mxCell id="uVbZ8XAu38w_o3__-Ur9-13" value="&lt;font face=&quot;Times New Roman&quot;&gt;&lt;span style=&quot;font-size: 15px;&quot;&gt;损伤分类&lt;/span&gt;&lt;/font&gt;" style="rounded=1;whiteSpace=wrap;html=1;fillColor=#008a00;strokeColor=#005700;fontColor=#ffffff;" vertex="1" parent="1">
          <mxGeometry x="350" y="510" width="120" height="60" as="geometry" />
        </mxCell>
        <mxCell id="uVbZ8XAu38w_o3__-Ur9-25" style="edgeStyle=orthogonalEdgeStyle;rounded=0;orthogonalLoop=1;jettySize=auto;html=1;exitX=0.5;exitY=1;exitDx=0;exitDy=0;entryX=0.5;entryY=0;entryDx=0;entryDy=0;" edge="1" parent="1" source="uVbZ8XAu38w_o3__-Ur9-14" target="uVbZ8XAu38w_o3__-Ur9-20">
          <mxGeometry relative="1" as="geometry" />
        </mxCell>
        <mxCell id="uVbZ8XAu38w_o3__-Ur9-14" value="&lt;font face=&quot;Times New Roman&quot;&gt;&lt;span style=&quot;font-size: 15px;&quot;&gt;特征提取&lt;/span&gt;&lt;/font&gt;" style="rounded=1;whiteSpace=wrap;html=1;fillColor=#008a00;strokeColor=#005700;fontColor=#ffffff;" vertex="1" parent="1">
          <mxGeometry x="190" y="510" width="120" height="60" as="geometry" />
        </mxCell>
        <mxCell id="uVbZ8XAu38w_o3__-Ur9-24" style="edgeStyle=orthogonalEdgeStyle;rounded=0;orthogonalLoop=1;jettySize=auto;html=1;exitX=0.5;exitY=1;exitDx=0;exitDy=0;entryX=0.5;entryY=0;entryDx=0;entryDy=0;" edge="1" parent="1" source="uVbZ8XAu38w_o3__-Ur9-15" target="uVbZ8XAu38w_o3__-Ur9-20">
          <mxGeometry relative="1" as="geometry" />
        </mxCell>
        <mxCell id="uVbZ8XAu38w_o3__-Ur9-15" value="&lt;font face=&quot;Times New Roman&quot;&gt;&lt;span style=&quot;font-size: 15px;&quot;&gt;风险预测&lt;/span&gt;&lt;/font&gt;" style="rounded=1;whiteSpace=wrap;html=1;fillColor=#008a00;strokeColor=#005700;fontColor=#ffffff;" vertex="1" parent="1">
          <mxGeometry x="510" y="510" width="120" height="60" as="geometry" />
        </mxCell>
        <mxCell id="uVbZ8XAu38w_o3__-Ur9-18" style="edgeStyle=orthogonalEdgeStyle;rounded=0;orthogonalLoop=1;jettySize=auto;html=1;exitX=0.5;exitY=1;exitDx=0;exitDy=0;" edge="1" parent="1" source="uVbZ8XAu38w_o3__-Ur9-12" target="uVbZ8XAu38w_o3__-Ur9-14">
          <mxGeometry relative="1" as="geometry">
            <mxPoint x="240" y="500" as="targetPoint" />
            <Array as="points">
              <mxPoint x="410" y="485" />
              <mxPoint x="250" y="485" />
            </Array>
          </mxGeometry>
        </mxCell>
        <mxCell id="uVbZ8XAu38w_o3__-Ur9-27" style="edgeStyle=orthogonalEdgeStyle;rounded=0;orthogonalLoop=1;jettySize=auto;html=1;exitX=0.5;exitY=1;exitDx=0;exitDy=0;entryX=0.5;entryY=0;entryDx=0;entryDy=0;" edge="1" parent="1" source="uVbZ8XAu38w_o3__-Ur9-20" target="uVbZ8XAu38w_o3__-Ur9-26">
          <mxGeometry relative="1" as="geometry" />
        </mxCell>
        <mxCell id="uVbZ8XAu38w_o3__-Ur9-20" value="&lt;font face=&quot;Times New Roman&quot;&gt;&lt;span style=&quot;font-size: 15px;&quot;&gt;实时显示公路大屏&lt;/span&gt;&lt;/font&gt;" style="rounded=1;whiteSpace=wrap;html=1;fillColor=#008a00;strokeColor=#005700;fontColor=#ffffff;" vertex="1" parent="1">
          <mxGeometry x="350" y="620" width="120" height="60" as="geometry" />
        </mxCell>
        <mxCell id="uVbZ8XAu38w_o3__-Ur9-26" value="&lt;font face=&quot;Times New Roman&quot;&gt;&lt;span style=&quot;font-size: 15px;&quot;&gt;检测道路基础设施状态并输出结果&lt;/span&gt;&lt;/font&gt;" style="rounded=1;whiteSpace=wrap;html=1;fillColor=#008a00;strokeColor=#005700;fontColor=#ffffff;" vertex="1" parent="1">
          <mxGeometry x="350" y="730" width="120" height="60" as="geometry" />
        </mxCell>
      </root>
    </mxGraphModel>
  </diagram>
</mxfile>
